
  <svg width="160" height="166" viewBox="0 0 160 166" fill="none" xmlns="http://www.w3.org/2000/svg">
  <path d="M159.68 79.68C159.68 123.67 123.99 159.36 80 159.36C36.01 159.36 0.320007 123.67 0.320007 79.68C0.320007 76.7157 0.497865 73.8107 0.794293 70.9057C5.18144 31.0064 38.9743 0 80 0C121.026 0 154.819 31.0064 159.206 70.9057C159.502 73.8107 159.68 76.7157 159.68 79.68Z" fill="#B3AFAB"/>
  <path d="M159.206 70.9057H0.794312C5.18145 31.0064 38.9743 0 80 0C121.026 0 154.819 31.0064 159.206 70.9057Z" fill="#E1DFDD"/>
  <path d="M141.776 34.8009L143.139 46.1244L137.329 34.8601L131.638 51.5787L139.404 57.8037C144.266 61.6573 151.38 57.9223 150.965 51.7566L147.349 37.2909L147.704 37.1723C149.364 36.7573 151.143 35.5716 150.728 33.4966C150.313 31.4216 148.238 31.1251 147.052 31.4216L143.673 31.9551C142.606 32.133 141.894 33.7337 141.776 34.8009Z" fill="#E0BB95"/>
  <path d="M137.27 58.3372L136.499 59.6415C134.78 62.5465 133.831 65.8665 133.831 69.2458V110.746H127.725L124.761 65.9851C124.701 64.8586 124.761 63.7322 124.998 62.6651L126.599 54.3651L123.694 42.5079L135.551 35.5122L140.056 42.9822C140.116 43.3379 140.175 43.6936 140.234 44.0494C141.064 48.9108 139.819 54.1279 137.27 58.3372Z" fill="#E0BB95"/>
  <path d="M133.713 112.821H130.867C128.97 112.821 127.488 111.279 127.488 109.442C127.488 107.544 129.029 106.062 130.867 106.062H133.713C135.61 106.062 137.092 107.604 137.092 109.442C137.092 111.279 135.61 112.821 133.713 112.821Z" fill="#E0BB95"/>
  <path d="M77.9843 113.71C77.5693 113.71 77.2136 113.71 76.7986 113.71C70.5736 113.414 65.5936 110.983 62.2736 106.655C58.0643 101.082 56.9379 92.7821 59.0722 83.2964C60.5543 76.9528 64.4672 69.7793 68.3207 62.7836C73.1822 53.95 78.1622 44.82 77.4507 38.7136C76.8579 33.3779 74.4272 29.1093 70.6922 26.7378C66.4236 24.0107 60.5543 23.7736 53.6772 26.0857C52.1357 26.6193 50.4757 25.7893 49.9422 24.2479C49.4086 22.7064 50.2386 21.0464 51.78 20.5128C62.6293 16.8964 69.8029 19.2086 73.8343 21.8171C79.1107 25.1371 82.4307 30.9471 83.2607 38.1207C84.2093 46.1243 78.9922 55.6693 73.4786 65.7478C69.8622 72.3878 66.1272 79.2057 64.8229 84.7786C63.0443 92.3671 63.815 99.1257 66.9572 103.216C69.1507 106.121 72.5893 107.722 77.0357 107.959C81.1857 108.137 84.15 107.129 86.225 104.817C90.6714 99.8964 89.3672 90.5293 89.3672 90.47C89.13 88.8693 90.2564 87.3871 91.8572 87.0907C93.4579 86.8536 94.94 87.98 95.2364 89.5807C95.2957 90.055 97.015 101.734 90.6714 108.789C87.5886 112.05 83.32 113.71 77.9843 113.71Z" fill="#BF8F68"/>
  <path d="M123.101 19.1494C123.101 19.1494 117.409 10.9087 118.536 3.73512C124.642 3.3794 129.919 10.0787 129.919 10.0787L123.101 19.1494Z" fill="#E0BB95"/>
  <path d="M123.219 16.4221C121.856 13.9914 119.781 9.48565 119.899 5.27637C123.397 5.75065 126.539 8.59637 127.903 10.0785L123.219 16.4221Z" fill="#FADCBD"/>
  <path d="M138.278 9.78225C138.278 9.78225 141.835 4.03154 148.119 2.66797C150.431 9.54511 145.807 15.4144 145.807 15.4144L138.278 9.78225Z" fill="#E0BB95"/>
  <path d="M140.412 9.4857C141.539 8.06284 143.851 5.7507 147.052 4.62427C147.764 8.29998 146.4 11.5607 145.451 13.28L140.412 9.4857Z" fill="#FADCBD"/>
  <path d="M146.993 19.8607C146.993 12.865 141.301 7.17358 134.306 7.17358C127.903 7.17358 122.626 11.9164 121.796 18.0822C121.026 20.5722 120.611 23.2993 120.611 26.0264C120.611 27.8643 120.789 29.7022 121.144 31.4807C120.433 32.0736 119.781 32.6664 119.129 33.4372L99.8014 51.2822C93.4579 57.0922 88.8336 67.2893 88.1814 78.9093C87.1143 96.9914 95.9479 111.635 107.924 111.635C119.899 111.635 122.626 96.9322 123.694 78.85C124.109 71.9729 130.867 65.6886 128.792 60.4122C135.136 59.7007 140.116 53.0014 140.116 44.82C140.116 41.2629 139.167 38.0022 137.566 35.3936L137.804 32.4293C140.294 32.3107 143.969 31.8364 145.155 30.4136C146.044 29.2872 147.467 27.5086 145.57 25.4929C146.519 23.7143 146.993 21.8172 146.993 19.8607Z" fill="#E0BB95"/>
  <path d="M141.776 34.8009L143.139 46.1244L137.329 34.8601L131.638 51.5787L139.404 57.8037C144.266 61.6573 151.38 57.9223 150.965 51.7566L147.349 37.2909L147.704 37.1723C149.364 36.7573 151.143 35.5716 150.728 33.4966C150.313 31.4216 148.238 31.1251 147.052 31.4216L143.673 31.9551C142.606 32.133 141.894 33.7337 141.776 34.8009Z" fill="url(#paint0_linear)"/>
  <path d="M140.294 43.99C140.234 43.6935 140.175 43.3971 140.116 43.0414C139.76 38.7135 137.981 34.9192 135.373 32.37L121.144 31.4214C120.433 32.0142 119.781 32.6071 119.129 33.3778L99.8014 51.2228C93.4579 57.0328 88.8336 67.23 88.1814 78.85C87.1143 96.9321 95.9479 111.576 107.924 111.576C119.899 111.576 122.626 96.8728 123.694 78.7907C123.812 76.8342 124.405 74.9371 125.235 73.0992L127.725 110.746H133.831V69.2457C133.831 65.8664 134.78 62.5464 136.499 59.6414L137.27 58.3371C139.819 54.1278 141.064 48.9107 140.294 43.99Z" fill="url(#paint1_radial)"/>
  <path d="M137.981 31.8956C137.981 31.8956 140.056 32.3699 140.531 33.3777C141.005 34.3856 141.657 35.1563 142.784 34.8599C143.91 34.6227 143.851 32.1327 142.072 31.1249C140.294 30.117 137.981 31.8956 137.981 31.8956Z" fill="#E06C7D"/>
  <path d="M143.851 27.0342C142.606 26.7378 141.479 27.2713 140.886 28.1606C140.294 27.212 139.167 26.6785 137.922 27.0342C136.974 27.2713 136.262 28.042 136.025 28.9906C135.61 30.7692 136.914 32.3106 138.634 32.3106C139.049 32.3106 139.464 32.192 139.819 32.0142C140.531 31.6585 141.301 31.6585 141.954 32.0142C142.309 32.192 142.724 32.3106 143.139 32.3106C144.859 32.3106 146.163 30.7099 145.748 28.9906C145.511 28.042 144.74 27.2713 143.851 27.0342Z" fill="#FADCBD"/>
  <path d="M142.369 28.8722C143.199 27.9236 142.369 26.8564 141.183 26.7972C139.997 26.6786 139.049 27.6272 139.701 28.6943C140.234 29.5243 141.657 29.6429 142.369 28.8722Z" fill="#9B643D"/>
  <path d="M124.82 112.821H99.8607C97.9636 112.821 96.4814 111.279 96.4814 109.442C96.4814 107.544 98.0229 106.062 99.8607 106.062H124.82C126.717 106.062 128.199 107.604 128.199 109.442C128.199 111.279 126.717 112.821 124.82 112.821Z" fill="#E0BB95"/>
  <path d="M127.241 89.2094C128.609 76.0189 122.694 64.598 114.03 63.7C105.367 62.8021 97.2358 72.7671 95.8686 85.9576C94.5014 99.1481 100.416 110.569 109.079 111.467C117.743 112.365 125.874 102.4 127.241 89.2094Z" fill="#E0BB95"/>
  <path d="M134.246 25.6706C132.764 25.6706 131.934 24.3664 131.934 24.3071C131.756 24.0106 131.875 23.5957 132.171 23.4178C132.468 23.2399 132.883 23.3585 133.061 23.6549C133.061 23.6549 133.535 24.3664 134.246 24.3664C134.958 24.3664 135.432 23.6549 135.432 23.6549C135.61 23.3585 136.025 23.2399 136.321 23.4178C136.618 23.5957 136.736 24.0106 136.559 24.3071C136.559 24.3071 135.788 25.6706 134.246 25.6706Z" fill="#594539"/>
  <path d="M143.673 25.6706C142.191 25.6706 141.361 24.3664 141.361 24.3071C141.183 24.0106 141.301 23.5957 141.598 23.4178C141.894 23.2399 142.309 23.3585 142.487 23.6549C142.487 23.6549 142.961 24.3664 143.673 24.3664C144.384 24.3664 144.859 23.6549 144.859 23.6549C145.036 23.3585 145.451 23.2399 145.748 23.4178C146.044 23.5957 146.163 24.0106 145.985 24.3071C145.985 24.3071 145.155 25.6706 143.673 25.6706Z" fill="#594539"/>
  <path d="M145.985 142.464H123.397C121.974 142.464 120.729 141.337 120.729 139.914C120.729 139.381 120.67 138.906 120.551 138.373C119.781 135.053 116.639 132.8 113.259 132.8H50.535C47.0964 132.8 44.0136 135.053 43.2429 138.373C43.1243 138.906 43.065 139.44 43.065 139.914C43.065 141.337 41.82 142.464 40.3972 142.464H17.3943C13.3629 142.464 9.86501 145.606 9.80572 149.696C9.68715 153.787 13.0072 157.107 17.0979 157.107H31.5043C32.8679 157.107 33.9943 158.115 34.1722 159.479C34.2314 159.775 34.2314 160.012 34.2907 160.309C35.0614 163.688 38.2036 166 41.7014 166H124.464C127.903 166 131.045 163.688 131.816 160.309C131.875 160.012 131.934 159.775 131.934 159.479C132.112 158.115 133.239 157.107 134.602 157.107H146.163C150.254 157.107 153.574 153.728 153.514 149.637C153.455 145.606 150.016 142.464 145.985 142.464Z" fill="#9B643D"/>
  <path d="M80.4743 132.504C80.4743 122.069 74.7829 113.591 67.7279 113.058H67.135H67.0757H67.0164H23.56C16.1493 113.058 10.1021 121.773 10.1021 132.504C10.1021 143.234 16.1493 151.949 23.56 151.949H67.7279C74.7829 151.475 80.4743 142.938 80.4743 132.504ZM67.7279 150.586V114.421C74.0714 114.955 79.17 122.84 79.17 132.504C79.17 142.167 74.0714 150.111 67.7279 150.586Z" fill="#F3F2F1"/>
  <path d="M45.0807 130.132H37.1364C29.9629 130.132 24.1529 124.322 24.1529 117.149V112.999C24.1529 105.825 29.9629 100.015 37.1364 100.015H45.0807C52.2543 100.015 58.0643 105.825 58.0643 112.999V117.149C58.0643 124.322 52.2543 130.132 45.0807 130.132ZM37.1364 105.351C32.9271 105.351 29.4886 108.789 29.4886 112.999V117.149C29.4886 121.358 32.9271 124.797 37.1364 124.797H45.0807C49.29 124.797 52.7286 121.358 52.7286 117.149V112.999C52.7286 108.789 49.29 105.351 45.0807 105.351H37.1364Z" fill="#F3F2F1"/>
  <path d="M79.17 132.504C79.17 142.523 73.7157 150.645 67.0757 150.645C60.4357 150.645 54.9814 142.523 54.9814 132.504C54.9814 122.484 60.4357 114.362 67.0757 114.362C73.7157 114.362 79.17 122.544 79.17 132.504Z" fill="#8B8CC4"/>
  <path d="M67.55 140.626C69.625 140.626 71.285 142.286 71.285 144.361C71.285 145.369 70.87 146.317 70.2179 146.969C69.5657 147.621 68.6172 148.036 67.6093 148.036H60.91C58.835 146.258 57.2936 143.59 56.345 140.626H67.55Z" fill="#9B643D"/>
  <defs>
  <linearGradient id="paint0_linear" x1="124.753" y1="49.2747" x2="143.463" y2="45.7281" gradientUnits="userSpaceOnUse">
  <stop offset="0.0004" stop-color="#9B643D"/>
  <stop offset="1" stop-color="#E0BB95"/>
  </linearGradient>
  <radialGradient id="paint1_radial" cx="0" cy="0" r="1" gradientUnits="userSpaceOnUse" gradientTransform="translate(115.032 88.1301) scale(18.2492 31.2334)">
  <stop offset="0.0004" stop-color="#9B643D"/>
  <stop offset="1" stop-color="#E0BB95"/>
  </radialGradient>
  </defs>
  </svg>



